<svg xmlns="http://www.w3.org/2000/svg" viewBox="0 0 128 128">
  <defs>
    <linearGradient id="g" x1="12" y1="14" x2="116" y2="114" gradientUnits="userSpaceOnUse">
      <stop stop-color="#00f5d4"/>
      <stop offset=".48" stop-color="#ffe66d"/>
      <stop offset="1" stop-color="#ff4ecd"/>
    </linearGradient>
  </defs>
  <rect width="128" height="128" rx="34" fill="#070816"/>
  <path d="M21 20h86c6.1 0 11 4.9 11 11v66c0 6.1-4.9 11-11 11H21c-6.1 0-11-4.9-11-11V31c0-6.1 4.9-11 11-11Z" fill="url(#g)" opacity=".18"/>
  <path d="M30 37l21 55h-9.8L25 49.3 30 37Zm36 0L45 92h9.8L71 49.3 66 37Zm18.9 56c-6.6 0-12.2-1.6-16.6-4.9l4.2-8.1c3.7 2.6 7.9 3.9 12.8 3.9 4.8 0 7.2-1.4 7.2-4.1 0-1.4-.7-2.5-2.2-3.3-1.4-.8-3.8-1.6-7.2-2.4-4.8-1.1-8.5-2.6-11.1-4.7-2.6-2-3.9-5-3.9-8.9 0-4.5 1.8-8 5.3-10.6 3.6-2.6 8.2-3.9 13.9-3.9 5.6 0 10.5 1.2 14.6 3.7l-3.7 8.2c-3.5-2-7.1-3-10.9-3-4.5 0-6.8 1.3-6.8 3.8 0 1.4.7 2.4 2.1 3.1 1.4.7 3.7 1.4 6.9 2.2 5.1 1.2 9 2.9 11.6 5 2.6 2.1 3.9 5.1 3.9 9 0 4.6-1.8 8.2-5.4 10.9-3.6 2.7-8.5 4.1-14.7 4.1Z" fill="#f8fbff"/>
</svg>
